<mxfile host="app.diagrams.net" modified="2023-06-27T07:58:10.193Z" agent="Mozilla/5.0 (Windows NT 10.0; Win64; x64) AppleWebKit/537.36 (KHTML, like Gecko) Chrome/114.0.0.0 Safari/537.36" etag="LEHC1rDWjhomK4HTkT5q" version="21.5.0" type="github">
  <diagram name="Page-1" id="Dy_3IxTgvsXRtRxnhMQ7">
    <mxGraphModel dx="1120" dy="484" grid="1" gridSize="10" guides="1" tooltips="1" connect="1" arrows="1" fold="1" page="1" pageScale="1" pageWidth="850" pageHeight="1100" math="0" shadow="0">
      <root>
        <mxCell id="0" />
        <mxCell id="1" parent="0" />
        <mxCell id="xWNrEqZs1fqT_uNpN8nV-1" value="" style="rounded=0;whiteSpace=wrap;html=1;" vertex="1" parent="1">
          <mxGeometry x="120" y="90" width="450" height="310" as="geometry" />
        </mxCell>
        <mxCell id="xWNrEqZs1fqT_uNpN8nV-3" value="" style="rounded=0;whiteSpace=wrap;html=1;" vertex="1" parent="1">
          <mxGeometry x="640" y="240" width="160" height="160" as="geometry" />
        </mxCell>
        <mxCell id="xWNrEqZs1fqT_uNpN8nV-4" value="" style="rounded=0;whiteSpace=wrap;html=1;" vertex="1" parent="1">
          <mxGeometry x="640" y="90" width="160" height="120" as="geometry" />
        </mxCell>
        <mxCell id="xWNrEqZs1fqT_uNpN8nV-5" value="" style="endArrow=none;html=1;rounded=0;exitX=0.482;exitY=0.079;exitDx=0;exitDy=0;exitPerimeter=0;" edge="1" parent="1" source="xWNrEqZs1fqT_uNpN8nV-7">
          <mxGeometry width="50" height="50" relative="1" as="geometry">
            <mxPoint x="600" y="200" as="sourcePoint" />
            <mxPoint x="600" y="30" as="targetPoint" />
          </mxGeometry>
        </mxCell>
        <mxCell id="xWNrEqZs1fqT_uNpN8nV-6" value="" style="endArrow=none;html=1;rounded=0;" edge="1" parent="1" target="xWNrEqZs1fqT_uNpN8nV-7">
          <mxGeometry width="50" height="50" relative="1" as="geometry">
            <mxPoint x="600" y="480" as="sourcePoint" />
            <mxPoint x="599.47" y="288" as="targetPoint" />
          </mxGeometry>
        </mxCell>
        <mxCell id="xWNrEqZs1fqT_uNpN8nV-7" value="Firewall" style="text;html=1;align=center;verticalAlign=middle;resizable=0;points=[];autosize=1;strokeColor=none;fillColor=none;rotation=0;" vertex="1" parent="1">
          <mxGeometry x="570" y="256" width="60" height="30" as="geometry" />
        </mxCell>
        <mxCell id="xWNrEqZs1fqT_uNpN8nV-8" value="" style="shape=image;verticalLabelPosition=bottom;verticalAlign=top;imageAspect=0;aspect=fixed;image=data:image/svg+xml,PHN2ZyB4bWxucz0iaHR0cDovL3d3dy53My5vcmcvMjAwMC9zdmciIGlkPSJkYXRhLXByaXZhY3ktaW50ZWdyYXRpb24iIHZpZXdCb3g9IjMuOTk5OTk5MDQ2MzI1NjgzNiA0IDQ4IDQ4IiB3aWR0aD0iNDgiIGhlaWdodD0iNDgiPjxkZWZzPjxzdHlsZT4uY2xzLTF7ZmlsbDojMDUzYjcwO30uY2xzLTJ7ZmlsbDojMGE2ZWQxO308L3N0eWxlPjwvZGVmcz48cGF0aCBjbGFzcz0iY2xzLTEiIGQ9Ik0yMy4yNiwzMi44M2ExMy40NzgsMTMuNDc4LDAsMCwxLS44Ny0yLjg4QTUuNjg3LDUuNjg3LDAsMCwxLDE5LDMxYTYuMSw2LjEsMCwwLDEtNi02LDYuMSw2LjEsMCwwLDEsNi02LDUuNiw1LjYsMCwwLDEsMywuNzhWMTYuNTFBOC44NjgsOC44NjgsMCwwLDAsMTksMTZhOC41ODMsOC41ODMsMCwwLDAtNi4zNiwyLjY0LDguOTgxLDguOTgxLDAsMCwwLDAsMTIuNzJBOC41ODMsOC41ODMsMCwwLDAsMTksMzRhOC42LDguNiwwLDAsMCw0LjI5LTEuMDhDMjMuMjksMzIuODksMjMuMjYsMzIuODYsMjMuMjYsMzIuODNaTTMzLjg1LDQ0LjExYy0uMTgtLjA5LS4zNi0uMjEtLjU3LS4zM2EyNi4xNDUsMjYuMTQ1LDAsMCwxLTMuNTQtMi40M0E4LjY0Miw4LjY0MiwwLDAsMSwzMSw0NnYzSDdWNDZhOC43LDguNywwLDAsMSwyLjY0LTYuMzZBOC41ODMsOC41ODMsMCwwLDEsMTYsMzdoNmE4LjY3Nyw4LjY3NywwLDAsMSw0LjUsMS4xNywxOC41NTYsMTguNTU2LDAsMCwxLTIuNC0zLjUxYy0uMDktLjE1LS4xOC0uMzMtLjI3LS41MUE5LjA0Niw5LjA0NiwwLDAsMCwyMiwzNEgxNmExMS41NiwxMS41NiwwLDAsMC00LjYyLjkzLDEyLjE4LDEyLjE4LDAsMCwwLTMuODQsMi41OCwxMi4wMTgsMTIuMDE4LDAsMCwwLTIuNTgsMy44NEExMS43MywxMS43MywwLDAsMCw0LDQ2djZIMzRWNDZBMTIuNywxMi43LDAsMCwwLDMzLjg1LDQ0LjExWiIvPjxwYXRoIGNsYXNzPSJjbHMtMiIgZD0iTTM4LjUsNy43MDlsLjk0LjY3MmExNS4xODcsMTUuMTg3LDAsMCwwLDcuODEzLDIuNTQ2TDQ5LDEwLjkzNCw0OSwyNi4yYzAsOC44NS05LjQ2OCwxMy4wNjQtOS44NjgsMTMuMjQxbC0uNjMyLjI3Mi0uNjMyLS4yNzJDMzcuNDY4LDM5LjI2MSwyOCwzNS4wNDcsMjgsMjYuMlYxMC45MzRsMS43NDctLjAwN0ExNS4xODcsMTUuMTg3LDAsMCwwLDM3LjU2LDguMzgxbC45NC0uNjcyTTM4LjUsNCwzNi43NjMsNS4yNDNsLS45NC42NzNBMTIuMjgyLDEyLjI4MiwwLDAsMSwyOS43MDksNy45bC0xLjcyMi4wMDdMMjUsNy45MjRWMjYuMmMwLDEwLjU0OCwxMC40NjksMTUuNDgyLDExLjY2MywxNi4wMWwuNjU2LjI4M0wzOC41LDQzbDEuMTgxLS41MS42MzItLjI3M0M0MS41MzEsNDEuNjc5LDUyLDM2Ljc0NSw1MiwyNi4ybDAtMTUuMjYzVjcuOTI0TDQ5LjAxLDcuOTEsNDcuMjY3LDcuOWExMi4yODgsMTIuMjg4LDAsMCwxLTYuMDg4LTEuOTg1bC0uOTQyLS42NzVMMzguNSw0WiIvPjxwYXRoIGNsYXNzPSJjbHMtMSIgZD0iTTM5LjQ0NywyNi40NGwxLjA1LDIuMTloLTQuMDJsMS4wNS0yLjE5YTIuNzU3LDIuNzU3LDAsMCwxLS42Ni0uNjYsMS42MTUsMS42MTUsMCwwLDEtLjI3LS45MywxLjY0NCwxLjY0NCwwLDAsMSwuNTctMS4zMiwxLjg4MywxLjg4MywwLDAsMSwyLjY0LDAsMS42NDQsMS42NDQsMCwwLDEsLjU3LDEuMzIsMS42MTUsMS42MTUsMCwwLDEtLjI3LjkzQTIuNzU3LDIuNzU3LDAsMCwxLDM5LjQ0NywyNi40NFoiLz48cGF0aCBjbGFzcz0iY2xzLTEiIGQ9Ik00MS4yNDcsMTYuOTNhMi44NTIsMi44NTIsMCwwLDEsLjAzLjQydjMuNzhIMzUuN1YxNy4zNWEyLjg1MiwyLjg1MiwwLDAsMSwuMDMtLjQyLDEuMTEsMS4xMSwwLDAsMSwuMjctLjY2LDIuMDM0LDIuMDM0LDAsMCwxLC44NC0uNTQsNC4zMTMsNC4zMTMsMCwwLDEsMS41OS0uMjRoLjEyYTQuMzEzLDQuMzEzLDAsMCwxLDEuNTkuMjQsMi4wMzQsMi4wMzQsMCwwLDEsLjg0LjU0QTEuMTEsMS4xMSwwLDAsMSw0MS4yNDcsMTYuOTNaIi8+PHBhdGggY2xhc3M9ImNscy0xIiBkPSJNNDcuMjQ3LDEwLjkzYTE1LjI3OCwxNS4yNzgsMCwwLDEtNy44LTIuNTVsLS45Ni0uNjYtLjkzLjY2YTE1LjI3OCwxNS4yNzgsMCwwLDEtNy44LDIuNTVoLTEuNzdWMjYuMmMwLDguODUsOS40OCwxMy4wNSw5Ljg3LDEzLjIzbC42My4yNy42Ni0uMjdjLjM5LS4xOCw5Ljg0LTQuMzgsOS44NC0xMy4yM1YxMC45M1ptLTIuMTksMTcuN2ExLjcwOSwxLjcwOSwwLDAsMS0uMywxLjA4LDEuNzg2LDEuNzg2LDAsMCwxLS42My41NCwxLjk0OSwxLjk0OSwwLDAsMS0uOTMuMjRoLTkuNDJhMS45NDksMS45NDksMCwwLDEtLjkzLS4yNCwxLjc4NiwxLjc4NiwwLDAsMS0uNjMtLjU0LDEuNzA5LDEuNzA5LDAsMCwxLS4zLTEuMDhWMjIuOTlhMS42NzUsMS42NzUsMCwwLDEsLjMtMS4wNSwxLjcwNiwxLjcwNiwwLDAsMSwuNjMtLjYsMS45MjgsMS45MjgsMCwwLDEsLjkzLS4yMWguMDNWMTcuMzVhNCw0LDAsMCwxLC4yMS0xLjI5LDIuNzQ1LDIuNzQ1LDAsMCwxLC43Mi0xLjIsNC4zODUsNC4zODUsMCwwLDEsMS40MS0uOSw2LjIxLDYuMjEsMCwwLDEsMi4yOC0uMzNoLjEyYTYuMjEsNi4yMSwwLDAsMSwyLjI4LjMzLDQuMzg1LDQuMzg1LDAsMCwxLDEuNDEuOSwyLjc0NSwyLjc0NSwwLDAsMSwuNzIsMS4yLDQsNCwwLDAsMSwuMjEsMS4yOXYzLjc4aC4wM2ExLjkyOCwxLjkyOCwwLDAsMSwuOTMuMjEsMS43MDYsMS43MDYsMCwwLDEsLjYzLjYsMS42NzUsMS42NzUsMCwwLDEsLjMsMS4wNVoiLz48L3N2Zz4=" vertex="1" parent="1">
          <mxGeometry x="230" y="27" width="41" height="41" as="geometry" />
        </mxCell>
        <mxCell id="xWNrEqZs1fqT_uNpN8nV-9" value="" style="endArrow=classic;html=1;rounded=0;entryX=0.5;entryY=0;entryDx=0;entryDy=0;" edge="1" parent="1" target="xWNrEqZs1fqT_uNpN8nV-10">
          <mxGeometry width="50" height="50" relative="1" as="geometry">
            <mxPoint x="246.5" y="68" as="sourcePoint" />
            <mxPoint x="246.5" y="122" as="targetPoint" />
          </mxGeometry>
        </mxCell>
        <mxCell id="xWNrEqZs1fqT_uNpN8nV-10" value="" style="shape=image;verticalLabelPosition=bottom;verticalAlign=top;imageAspect=0;aspect=fixed;image=data:image/svg+xml,PHN2ZyB4bWxucz0iaHR0cDovL3d3dy53My5vcmcvMjAwMC9zdmciIGlkPSJzY3AtbGF1bmNocGFkIiB2aWV3Qm94PSI0LjAwMDAwMTkwNzM0ODYzMyAzLjk5OTk5OTA0NjMyNTY4MzYgNDggNDcuOTk5OTk2MTg1MzAyNzM0IiB3aWR0aD0iNDgiIGhlaWdodD0iNDcuOTk5OTk2MTg1MzAyNzM0Ij48ZGVmcz48c3R5bGU+LmNscy0xe2ZpbGw6bm9uZTt9LmNscy0ye2ZpbGw6IzA3NGQ5Mjt9LmNscy0ze2ZpbGw6IzAwM2I3NDt9LmNscy00e2ZpbGw6IzAwNmRkNzt9PC9zdHlsZT48L2RlZnM+PHBhdGggY2xhc3M9ImNscy0xIiBkPSJNMTguNDg3LDI4LjI0M0ExLjU0LDEuNTQsMCwwLDAsMTkuMzA2LDI4YTEuNTQsMS41NCwwLDAsMC0uODE5LS4yNDMsMS41MTUsMS41MTUsMCwwLDAtLjc2LjJMMTcuNjYyLDI4bC4wNjUuMDM4QTEuNTE1LDEuNTE1LDAsMCwwLDE4LjQ4NywyOC4yNDNaIi8+PHBhdGggY2xhc3M9ImNscy0xIiBkPSJNMzkuNTYsMjcuMTEzbC0uMTI0LS4wNzNhMS40ODgsMS40ODgsMCwwLDEtLjU3LjY1M0wzOC4zMzgsMjhsLjUyOC4zMDdhMS40ODgsMS40ODgsMCwwLDEsLjU3LjY1M2wuMTI0LS4wNzNBMi44NjEsMi44NjEsMCwwLDAsNDAuNDk1LDI4LDIuODYxLDIuODYxLDAsMCwwLDM5LjU2LDI3LjExM1oiLz48cGF0aCBjbGFzcz0iY2xzLTEiIGQ9Ik0zNy41MTMsMjcuNzU3YTEuNTQsMS41NCwwLDAsMC0uODE5LjI0MywxLjU0LDEuNTQsMCwwLDAsLjgxOS4yNDMsMS41MDgsMS41MDgsMCwwLDAsLjc1OS0uMkwzOC4zMzgsMjhsLS4wNjYtLjAzOEExLjUwOCwxLjUwOCwwLDAsMCwzNy41MTMsMjcuNzU3WiIvPjxwYXRoIGNsYXNzPSJjbHMtMiIgZD0iTTI4LDZBMjIsMjIsMCwxLDEsNiwyOCwyMi4wMjUsMjIuMDI1LDAsMCwxLDI4LDZtMC0yQTI0LDI0LDAsMSwwLDUyLDI4LDI0LDI0LDAsMCwwLDI4LDRaIi8+PHBhdGggY2xhc3M9ImNscy0zIiBkPSJNMzkuMzc1LDE3LjYyNUExLjU2NCwxLjU2NCwwLDAsMSw0MSwxOS4yNVYzNS41YTEuNjA2LDEuNjA2LDAsMCwxLS40NTcsMS4xNDMsMS41MzksMS41MzksMCwwLDEtMS4xNjguNDgySDE2LjYyNUExLjY0NiwxLjY0NiwwLDAsMSwxNSwzNS41VjE5LjI1YTEuNTM3LDEuNTM3LDAsMCwxLC40ODItMS4xNjgsMS42LDEuNiwwLDAsMSwxLjE0My0uNDU3Wm0wLDEuNjI1SDE2LjYyNVYzNS41aDIyLjc1Wm0tNS42ODcsMTkuNWEuNzE4LjcxOCwwLDAsMSwuODEyLjgxMi44MTQuODE0LDAsMCwxLS4yMjkuNTU5Ljc0Ny43NDcsMCwwLDEtLjU4My4yNTRIMjIuMzEyYS44NzQuODc0LDAsMCwxLS44MTItLjgxMy43NDcuNzQ3LDAsMCwxLC4yNTQtLjU4My44MTIuODEyLDAsMCwxLC41NTgtLjIyOVoiLz48cmVjdCBjbGFzcz0iY2xzLTQiIHg9IjE4LjI1IiB5PSIyMC44NzUiIHdpZHRoPSI4Ljk0NiIgaGVpZ2h0PSI4LjEyNSIgcng9IjAuNjc3Ii8+PHJlY3QgY2xhc3M9ImNscy00IiB4PSIyOC44MTMiIHk9IjIwLjg3NSIgd2lkdGg9IjguOTM4IiBoZWlnaHQ9IjMuMjUiIHJ4PSIwLjY3NyIvPjxyZWN0IGNsYXNzPSJjbHMtNCIgeD0iMTguMjUiIHk9IjMwLjYyNSIgd2lkdGg9IjMuNjQ1IiBoZWlnaHQ9IjMuMjUiIHJ4PSIwLjI3MSIvPjxyZWN0IGNsYXNzPSJjbHMtNCIgeD0iMjMuNTM5IiB5PSIzMC42MjUiIHdpZHRoPSIzLjY0OCIgaGVpZ2h0PSIzLjI1IiByeD0iMC4yNzEiLz48cmVjdCBjbGFzcz0iY2xzLTQiIHg9IjI4LjgxMyIgeT0iMzAuNjI1IiB3aWR0aD0iMy42NDgiIGhlaWdodD0iMy4yNSIgcng9IjAuMjcxIi8+PHJlY3QgY2xhc3M9ImNscy00IiB4PSIzNC4xMDIiIHk9IjMwLjYyNSIgd2lkdGg9IjMuNjQ4IiBoZWlnaHQ9IjMuMjUiIHJ4PSIwLjI3MSIvPjxyZWN0IGNsYXNzPSJjbHMtNCIgeD0iMjguODEzIiB5PSIyNS43NSIgd2lkdGg9IjMuNjQ4IiBoZWlnaHQ9IjMuMjUiIHJ4PSIwLjI3MSIvPjxyZWN0IGNsYXNzPSJjbHMtNCIgeD0iMzQuMTAyIiB5PSIyNS43NSIgd2lkdGg9IjMuNjQ4IiBoZWlnaHQ9IjMuMjUiIHJ4PSIwLjI3MSIvPjwvc3ZnPg==" vertex="1" parent="1">
          <mxGeometry x="227" y="110" width="40" height="40" as="geometry" />
        </mxCell>
        <mxCell id="xWNrEqZs1fqT_uNpN8nV-11" value="&lt;b style=&quot;border-color: var(--border-color); color: rgb(51, 28, 255); font-family: Helvetica; font-style: normal; font-variant-ligatures: normal; font-variant-caps: normal; letter-spacing: normal; orphans: 2; text-align: center; text-indent: 0px; text-transform: none; widows: 2; word-spacing: 0px; -webkit-text-stroke-width: 0px; background-color: rgb(251, 251, 251); text-decoration-thickness: initial; text-decoration-style: initial; text-decoration-color: initial;&quot;&gt;&lt;font style=&quot;font-size: 10px;&quot;&gt;Launchpad&lt;/font&gt;&lt;/b&gt;" style="text;whiteSpace=wrap;html=1;" vertex="1" parent="1">
          <mxGeometry x="267" y="115" width="69" height="30" as="geometry" />
        </mxCell>
        <mxCell id="xWNrEqZs1fqT_uNpN8nV-12" value="" style="shape=image;verticalLabelPosition=bottom;verticalAlign=top;imageAspect=0;aspect=fixed;image=https://digitalmarketplace-sapcpprd.s3.eu-central-1.amazonaws.com/v5uV3ilFJzWpwPxBO1OZ06s5uBTY-JDK3yfeiRldCbDMHGSbed-5xF7DUN79BPei.svg" vertex="1" parent="1">
          <mxGeometry x="227" y="170" width="40" height="40" as="geometry" />
        </mxCell>
        <mxCell id="xWNrEqZs1fqT_uNpN8nV-13" value="" style="endArrow=classic;html=1;rounded=0;exitX=0.5;exitY=1;exitDx=0;exitDy=0;entryX=0.5;entryY=0;entryDx=0;entryDy=0;" edge="1" parent="1" source="xWNrEqZs1fqT_uNpN8nV-10" target="xWNrEqZs1fqT_uNpN8nV-12">
          <mxGeometry width="50" height="50" relative="1" as="geometry">
            <mxPoint x="400" y="280" as="sourcePoint" />
            <mxPoint x="450" y="230" as="targetPoint" />
          </mxGeometry>
        </mxCell>
        <mxCell id="xWNrEqZs1fqT_uNpN8nV-14" value="&lt;b style=&quot;border-color: var(--border-color); color: rgb(51, 28, 255); font-family: Helvetica; font-style: normal; font-variant-ligatures: normal; font-variant-caps: normal; letter-spacing: normal; orphans: 2; text-align: center; text-indent: 0px; text-transform: none; widows: 2; word-spacing: 0px; -webkit-text-stroke-width: 0px; background-color: rgb(251, 251, 251); text-decoration-thickness: initial; text-decoration-style: initial; text-decoration-color: initial;&quot;&gt;&lt;font style=&quot;font-size: 10px;&quot;&gt;Angular App&lt;/font&gt;&lt;/b&gt;" style="text;whiteSpace=wrap;html=1;" vertex="1" parent="1">
          <mxGeometry x="267" y="175" width="69" height="30" as="geometry" />
        </mxCell>
        <mxCell id="xWNrEqZs1fqT_uNpN8nV-15" value="&lt;b&gt;&lt;font style=&quot;font-size: 14px;&quot;&gt;SAP BTP&lt;/font&gt;&lt;/b&gt;" style="text;html=1;align=center;verticalAlign=middle;resizable=0;points=[];autosize=1;strokeColor=none;fillColor=none;" vertex="1" parent="1">
          <mxGeometry x="330" y="68" width="80" height="30" as="geometry" />
        </mxCell>
        <mxCell id="xWNrEqZs1fqT_uNpN8nV-16" value="S/4 HANA" style="rounded=1;whiteSpace=wrap;html=1;" vertex="1" parent="1">
          <mxGeometry x="660" y="250" width="110" height="36" as="geometry" />
        </mxCell>
        <mxCell id="xWNrEqZs1fqT_uNpN8nV-17" value="" style="shape=image;verticalLabelPosition=bottom;verticalAlign=top;imageAspect=0;aspect=fixed;image=data:image/svg+xml,PHN2ZyB4bWxucz0iaHR0cDovL3d3dy53My5vcmcvMjAwMC9zdmciIGlkPSJjbG91ZGNvbm5lY3RvciIgdmlld0JveD0iNC4wMDAwMDE5MDczNDg2MzMgMy45OTk5OTkwNDYzMjU2ODM2IDQ4IDQ3Ljk5OTk5NjE4NTMwMjczNCIgd2lkdGg9IjQ4IiBoZWlnaHQ9IjQ3Ljk5OTk5NjE4NTMwMjczNCI+PGRlZnM+PHN0eWxlPi5jbHMtMXtmaWxsOiMwNzRkOTI7fS5jbHMtMntmaWxsOiM3ZjdmN2Y7fTwvc3R5bGU+PC9kZWZzPjx0aXRsZT5jbG91ZGNvbm5lY3Rvcl9jaXJjbGU8L3RpdGxlPjxwYXRoIGNsYXNzPSJjbHMtMSIgZD0iTTI4LDZBMjIsMjIsMCwxLDEsNiwyOCwyMi4wMjUsMjIuMDI1LDAsMCwxLDI4LDZtMC0yQTI0LDI0LDAsMSwwLDUyLDI4LDI0LDI0LDAsMCwwLDI4LDRaIi8+PHBhdGggY2xhc3M9ImNscy0yIiBkPSJNMjIuODE0LDE1Ljc1MUEzLjc2OCwzLjc2OCwwLDAsMSwyNi4yMzUsMTguMUwyNywyMC4wMjNsMS43NjctMS4wNjZhMi4yODcsMi4yODcsMCwwLDEsMS4xOTItLjM0NSwyLjMyNiwyLjMyNiwwLDAsMSwyLjI4MywxLjlsLjE2OC44OTIuODI2LjM3N2EzLjEyMSwzLjEyMSwwLDAsMSwxLjc1LDIuNzI0SDM2Ljc1YTQuODc2LDQuODc2LDAsMCwwLTIuNzkxLTQuMzE3LDQuMDQ5LDQuMDQ5LDAsMCwwLTYuMS0yLjcyNUE1LjUxNCw1LjUxNCwwLDAsMCwyMi43ODIsMTRjLTYuMDM4LjMyLTUuNCw2LjItNS40LDYuMmE0Ljg5Myw0Ljg5MywwLDAsMCwxLjUyNCw5LjU0N0gyMi43NXYtMS43NUgxOC45MDZhMy4xNDMsMy4xNDMsMCwwLDEtLjk3Ny02LjEzNGwxLjM0Ni0uNDQzLS4xNTMtMS40MDhBNC43MzMsNC43MzMsMCwwLDEsMjAsMTYuOTI0LDMuOCwzLjgsMCwwLDEsMjIuODE0LDE1Ljc1MVoiLz48cGF0aCBjbGFzcz0iY2xzLTIiIGQ9Ik00Miw0MC45MDYsNDEuMDE2LDQyLDM3LjU3LDM4LjYwOWwuMTEtLjEwOS0xLjAzOS45ODRhNC41NDMsNC41NDMsMCwwLDEtMy4xMTgsMS4zNjgsNC4xMTIsNC4xMTIsMCwwLDEtMy4wNjItMS4zNjhsLTEuNDIyLTEuNDIyLTIuNTE2LTIuNDA2QTQuNDc0LDQuNDc0LDAsMCwxLDI1LjEsMzIuNGE0LjMwNSw0LjMwNSwwLDAsMSwxLjQyMS0zLjJsLjY1Ny0uNzExLTQuNDMtNC41MzksMS4xNDgtMS4yLDQuNDMsNC41MzkuNzExLS43MTFhMy42LDMuNiwwLDAsMSwxLjQyMi0xLjAzOSw0LjUxNiw0LjUxNiwwLDAsMSwxLjctLjMyOCw0LjcyNSw0LjcyNSwwLDAsMSwzLjI4MiwxLjM2N0wzNy45LDI5LjJ2LjA1NUwzOS4zMiwzMC42OGE0LjE3Myw0LjE3MywwLDAsMSwwLDYuMTc5bC0uNjU2LjY1N1pNMjYuODUyLDMyLjM3NWEyLjc2OCwyLjc2OCwwLDAsMCwuODc1LDIuMDIzbDEuMjU3LDEuMjU4TDM1LjQzOCwyOS4ybC0xLjMxMy0xLjQyMmEyLjY4NCwyLjY4NCwwLDAsMC0xLjk2OS0uODIsMi4yNTIsMi4yNTIsMCwwLDAtMS44Ljc2NmwtMi41NzEsMi43MzRBMi4zOCwyLjM4LDAsMCwwLDI2Ljg1MiwzMi4zNzVaTTM4LjExNywzNS42YTIuMjg0LDIuMjg0LDAsMCwwLC44MjEtMS44LDIuNTM4LDIuNTM4LDAsMCwwLS43NjYtMS44NTlsLTEuNTMxLTEuNDc3LTYuMzQ0LDYuNCwxLjM2NywxLjM2OGguMDU1bC4wNTQuMDU0YTIuMjI3LDIuMjI3LDAsMCwwLDEuNzUuODIxLDIuNjE0LDIuNjE0LDAsMCwwLDEuODYtLjg3NVoiLz48L3N2Zz4=" vertex="1" parent="1">
          <mxGeometry x="681" y="340" width="40" height="40" as="geometry" />
        </mxCell>
        <mxCell id="xWNrEqZs1fqT_uNpN8nV-18" value="" style="endArrow=classic;html=1;rounded=0;exitX=1;exitY=0.5;exitDx=0;exitDy=0;entryX=1;entryY=0.5;entryDx=0;entryDy=0;" edge="1" parent="1" source="xWNrEqZs1fqT_uNpN8nV-17" target="xWNrEqZs1fqT_uNpN8nV-16">
          <mxGeometry relative="1" as="geometry">
            <mxPoint x="730" y="251.47000000000003" as="sourcePoint" />
            <mxPoint x="770" y="158" as="targetPoint" />
            <Array as="points">
              <mxPoint x="790" y="360" />
              <mxPoint x="790" y="268" />
            </Array>
          </mxGeometry>
        </mxCell>
        <mxCell id="xWNrEqZs1fqT_uNpN8nV-19" value="Restful API" style="edgeLabel;resizable=0;html=1;align=center;verticalAlign=middle;" connectable="0" vertex="1" parent="xWNrEqZs1fqT_uNpN8nV-18">
          <mxGeometry relative="1" as="geometry">
            <mxPoint x="-10" y="4" as="offset" />
          </mxGeometry>
        </mxCell>
        <mxCell id="xWNrEqZs1fqT_uNpN8nV-20" value="" style="image;sketch=0;aspect=fixed;html=1;points=[];align=center;fontSize=12;image=img/lib/mscae/SAP_HANA_on_Azure.svg;" vertex="1" parent="1">
          <mxGeometry x="660" y="250" width="40" height="20" as="geometry" />
        </mxCell>
      </root>
    </mxGraphModel>
  </diagram>
</mxfile>
